<svg xmlns="http://www.w3.org/2000/svg" viewBox="0 0 32 32">
  <defs>
    <linearGradient id="bg" x1="0%" y1="0%" x2="100%" y2="100%">
      <stop offset="0%" style="stop-color:#18181b"/>
      <stop offset="100%" style="stop-color:#09090b"/>
    </linearGradient>
    <linearGradient id="star" x1="0%" y1="0%" x2="100%" y2="100%">
      <stop offset="0%" style="stop-color:#ffffff"/>
      <stop offset="100%" style="stop-color:#fafafa"/>
    </linearGradient>
    <radialGradient id="glow" cx="50%" cy="50%">
      <stop offset="0%" style="stop-color:#ffffff;stop-opacity:0.2"/>
      <stop offset="100%" style="stop-color:#ffffff;stop-opacity:0"/>
    </radialGradient>
  </defs>
  <rect width="32" height="32" rx="7" fill="url(#bg)"/>
  <circle cx="16" cy="16" r="14" fill="url(#glow)"/>
  <path d="M16 7 L17.5 14 L24.5 15.5 L17.5 17 L16 24 L14.5 17 L7.5 15.5 L14.5 14 Z" fill="url(#star)" opacity="0.98"/>
  <circle cx="16" cy="15.5" r="1.5" fill="#ffffff"/>
  <path d="M22.5 10 L23.2 13 L26.2 13.7 L23.2 14.4 L22.5 17.4 L21.8 14.4 L18.8 13.7 L21.8 13 Z" fill="#f5f5f5" opacity="0.92"/>
  <path d="M9.5 18.6 L10 21 L12.4 21.5 L10 22 L9.5 24.4 L9 22 L6.6 21.5 L9 21 Z" fill="#f5f5f5" opacity="0.92"/>
</svg>
